<svg width="40.000000" height="40.000000" viewBox="0 0 40 40" fill="none" xmlns="http://www.w3.org/2000/svg" xmlns:xlink="http://www.w3.org/1999/xlink">
	<desc>
			Created with Pixso.
	</desc>
	<defs>
		<clipPath id="clip27_5841">
			<rect width="40.000000" height="40.000000" fill="white" fill-opacity="0"/>
		</clipPath>
		<linearGradient id="paint_linear_27_5840_0" x1="20.000044" y1="3.333374" x2="20.000044" y2="35.000042" gradientUnits="userSpaceOnUse">
			<stop stop-color="#EA9769"/>
			<stop offset="1.000000" stop-color="#EA6969"/>
		</linearGradient>
	</defs>
	<rect width="40.000000" height="40.000000" fill="#FFFFFF" fill-opacity="0"/>
	<g clip-path="url(#clip27_5841)">
		<path d="M31.66 3.33L8.33 3.33C5.57 3.33 3.33 5.57 3.33 8.33L3.33 13.05C3.33 14.8 3.97 16.4 5 17.62L5 33.33C5 33.77 5.17 34.19 5.48 34.51C5.8 34.82 6.22 35 6.66 35L20 35C20.44 35 20.86 34.82 21.17 34.51C21.49 34.19 21.66 33.77 21.66 33.33L21.66 25L28.33 25L28.33 33.33C28.33 33.77 28.5 34.19 28.82 34.51C29.13 34.82 29.55 35 30 35L33.33 35C33.77 35 34.19 34.82 34.51 34.51C34.82 34.19 35 33.77 35 33.33L35 17.62C36.03 16.4 36.66 14.8 36.66 13.05L36.66 8.33C36.66 5.57 34.42 3.33 31.66 3.33ZM33.33 8.33L33.33 13.05C33.33 14.95 31.91 16.57 30.18 16.66L30 16.66C28.16 16.66 26.66 15.17 26.66 13.33L26.66 6.66L31.66 6.66C32.58 6.66 33.33 7.41 33.33 8.33ZM16.66 13.33L16.66 6.66L23.33 6.66L23.33 13.33C23.33 15.17 21.83 16.66 20 16.66C18.16 16.66 16.66 15.17 16.66 13.33ZM6.66 8.33C6.66 7.41 7.41 6.66 8.33 6.66L13.33 6.66L13.33 13.33C13.33 15.17 11.83 16.66 10 16.66L9.81 16.66C8.08 16.57 6.66 14.95 6.66 13.05L6.66 8.33ZM16.66 26.66L10 26.66L10 21.66L16.66 21.66L16.66 26.66Z" fill="url(#paint_linear_27_5840_0)" fill-opacity="1.000000" fill-rule="nonzero"/>
	</g>
</svg>
